G04 #@! TF.FileFunction,Copper,L1,Top,Signal*
%FSLAX45Y45*%
G04 Gerber Fmt 4.5, Leading zero omitted, Abs format (unit mm)*
G04 Created by KiCad (PCBNEW (2015-06-14 BZR 5747, Git dc9ebf3)-product) date 7/9/2015 01:47:13*
%MOMM*%
G01*
G04 APERTURE LIST*
%ADD10C,0.254000*%
%ADD11R,0.250000X1.500000*%
%ADD12R,1.250000X1.500000*%
%ADD13O,1.100000X1.900000*%
%ADD14O,1.100000X2.250000*%
%ADD15R,0.300000X0.850000*%
%ADD16R,0.250000X0.850000*%
%ADD17O,1.550000X1.100000*%
%ADD18R,0.800000X0.750000*%
%ADD19C,0.558800*%
%ADD20C,0.152400*%
%ADD21C,0.203200*%
%ADD22C,0.304800*%
G04 APERTURE END LIST*
D10*
D11*
X7395000Y-8078000D03*
X7445000Y-8078000D03*
X7495000Y-8078000D03*
X7545000Y-8078000D03*
X7595000Y-8078000D03*
X7645000Y-8078000D03*
X7695000Y-8078000D03*
X7745000Y-8078000D03*
X7795000Y-8078000D03*
X7845000Y-8078000D03*
D12*
X7945000Y-8078000D03*
X7295000Y-8078000D03*
D13*
X7188000Y-8693000D03*
D14*
X8207500Y-9225500D03*
D15*
X7357500Y-8640500D03*
D16*
X7407500Y-8640500D03*
X7457500Y-8640500D03*
X7507500Y-8640500D03*
X7557500Y-8640500D03*
X7607500Y-8640500D03*
X7657500Y-8640500D03*
X7707500Y-8640500D03*
X7757500Y-8640500D03*
X7807500Y-8640500D03*
X7857500Y-8640500D03*
D15*
X7910000Y-8640500D03*
X7885000Y-8800500D03*
D16*
X7832500Y-8800500D03*
X7782500Y-8800500D03*
X7732500Y-8800500D03*
X7682500Y-8800500D03*
X7632500Y-8800500D03*
X7582500Y-8800500D03*
X7532500Y-8800500D03*
X7482500Y-8800500D03*
X7432500Y-8800500D03*
X7382500Y-8800500D03*
D15*
X7330000Y-8800500D03*
D14*
X7032500Y-9225500D03*
D13*
X8052000Y-8693000D03*
D17*
X7220500Y-8733000D03*
X8019500Y-8733000D03*
D18*
X7745000Y-8428000D03*
X7895000Y-8428000D03*
X7525000Y-8428000D03*
X7375000Y-8428000D03*
D19*
X7670000Y-8338000D03*
X7574094Y-8725986D03*
X7358880Y-8318000D03*
X7300000Y-8198000D03*
X7300000Y-8258000D03*
X7240000Y-8258000D03*
X7240000Y-8318000D03*
X7300000Y-8318000D03*
X7358880Y-8258000D03*
X7358880Y-8198000D03*
X8000000Y-8318000D03*
X8000000Y-8258000D03*
X7940000Y-8198000D03*
X7940000Y-8258000D03*
X7940000Y-8318000D03*
X7881120Y-8318000D03*
X7881120Y-8258000D03*
X7881120Y-8198000D03*
X7810000Y-8318000D03*
X7722442Y-8508680D03*
X7505964Y-8509527D03*
X7750000Y-8317774D03*
X7430000Y-8198000D03*
X7430000Y-8258000D03*
X7430000Y-8318000D03*
X7490000Y-8318000D03*
X7490000Y-8258000D03*
X7490000Y-8198000D03*
X7750000Y-8258000D03*
X7810000Y-8258000D03*
X7810000Y-8198000D03*
X7750000Y-8198000D03*
X7467600Y-8554820D03*
X7404100Y-8554820D03*
X7435850Y-8509000D03*
X7753350Y-8554820D03*
X7816850Y-8554820D03*
X7848600Y-8509000D03*
X7785100Y-8509000D03*
X7492176Y-8723724D03*
X7558236Y-8558000D03*
X7567299Y-8241698D03*
X7683300Y-8724565D03*
D20*
X7670000Y-8338000D02*
X7670000Y-8298487D01*
X7670000Y-8298487D02*
X7650481Y-8278968D01*
X7645000Y-8168240D02*
X7645000Y-8078000D01*
X7650481Y-8278968D02*
X7650481Y-8173721D01*
X7650481Y-8173721D02*
X7645000Y-8168240D01*
X7657500Y-8640500D02*
X7657500Y-8440014D01*
X7657500Y-8440014D02*
X7669514Y-8428000D01*
X7745000Y-8428000D02*
X7669514Y-8428000D01*
X7670000Y-8338000D02*
X7670000Y-8377513D01*
X7670000Y-8377513D02*
X7669514Y-8377999D01*
X7669514Y-8377999D02*
X7669514Y-8428000D01*
X7657500Y-8640500D02*
X7657500Y-8436856D01*
D10*
X7658100Y-8639900D02*
X7657500Y-8640500D01*
D20*
X7582500Y-8734392D02*
X7574094Y-8725986D01*
X7582500Y-8800500D02*
X7582500Y-8734392D01*
X7358880Y-8258000D02*
X7358880Y-8318000D01*
D21*
X7240000Y-8258000D02*
X7300000Y-8258000D01*
X7300000Y-8318000D02*
X7240000Y-8318000D01*
X7295000Y-8078000D02*
X7295000Y-8134120D01*
X7295000Y-8134120D02*
X7358880Y-8198000D01*
X7940000Y-8198000D02*
X8000000Y-8258000D01*
X7940000Y-8318000D02*
X7940000Y-8258000D01*
X7881120Y-8258000D02*
X7881120Y-8318000D01*
X7945000Y-8078000D02*
X7945000Y-8134120D01*
X7945000Y-8134120D02*
X7881120Y-8198000D01*
D10*
X7357500Y-8640500D02*
X7357500Y-8587163D01*
X7357500Y-8587163D02*
X7348220Y-8577883D01*
X7375000Y-8428000D02*
X7375000Y-8490900D01*
X7375000Y-8490900D02*
X7348220Y-8517680D01*
X7348220Y-8517680D02*
X7348220Y-8577883D01*
X7895000Y-8428000D02*
X7904480Y-8437480D01*
X7904480Y-8437480D02*
X7904480Y-8556716D01*
X7904480Y-8556716D02*
X7910000Y-8562236D01*
X7910000Y-8562236D02*
X7910000Y-8640500D01*
X7885000Y-8732600D02*
X7909600Y-8708000D01*
X7885000Y-8800500D02*
X7885000Y-8732600D01*
X7909600Y-8640900D02*
X7910000Y-8640500D01*
X7909600Y-8708000D02*
X7909600Y-8640900D01*
X7330000Y-8732600D02*
X7330000Y-8800500D01*
X7354200Y-8708400D02*
X7330000Y-8732600D01*
X7357500Y-8708400D02*
X7354200Y-8708400D01*
X7357500Y-8640500D02*
X7357500Y-8708400D01*
D22*
X7330000Y-8800500D02*
X7296388Y-8800500D01*
D20*
X7619200Y-8427200D02*
X7620000Y-8428000D01*
X7619200Y-8192440D02*
X7619200Y-8427200D01*
X7595000Y-8168240D02*
X7619200Y-8192440D01*
X7595000Y-8078000D02*
X7595000Y-8168240D01*
X7620000Y-8570260D02*
X7607500Y-8582760D01*
X7607500Y-8582760D02*
X7607500Y-8640500D01*
X7620000Y-8428000D02*
X7620000Y-8570260D01*
X7620000Y-8428000D02*
X7525000Y-8428000D01*
X7607500Y-8686648D02*
X7607500Y-8640500D01*
X7632500Y-8711648D02*
X7607500Y-8686648D01*
X7632500Y-8800500D02*
X7632500Y-8711648D01*
X7810000Y-8258000D02*
X7810000Y-8318000D01*
D21*
X7757500Y-8640500D02*
X7757500Y-8543738D01*
X7486650Y-8519267D02*
X7497237Y-8508680D01*
X7486650Y-8556830D02*
X7486650Y-8519267D01*
X7507500Y-8640500D02*
X7507500Y-8577680D01*
X7757500Y-8543738D02*
X7722442Y-8508680D01*
X7507500Y-8577680D02*
X7486650Y-8556830D01*
X7750000Y-8258000D02*
X7750000Y-8314658D01*
X7430000Y-8318000D02*
X7430000Y-8258000D01*
X7490000Y-8258000D02*
X7490000Y-8318000D01*
X7495000Y-8078000D02*
X7495000Y-8193000D01*
X7495000Y-8193000D02*
X7490000Y-8198000D01*
X7810000Y-8198000D02*
X7810000Y-8258000D01*
X7745000Y-8078000D02*
X7745000Y-8193000D01*
X7745000Y-8193000D02*
X7750000Y-8198000D01*
X7404100Y-8554820D02*
X7467600Y-8554820D01*
X7816850Y-8554820D02*
X7753350Y-8554820D01*
X7785100Y-8509000D02*
X7848600Y-8509000D01*
D10*
X7732500Y-8758068D02*
X7739180Y-8751387D01*
X7732500Y-8800500D02*
X7732500Y-8758068D01*
X7757500Y-8708400D02*
X7757500Y-8640500D01*
X7739180Y-8726720D02*
X7757500Y-8708400D01*
X7739180Y-8751387D02*
X7739180Y-8726720D01*
X7507500Y-8640500D02*
X7507500Y-8708400D01*
X7482500Y-8733400D02*
X7492176Y-8723724D01*
X7482500Y-8800500D02*
X7482500Y-8733400D01*
X7507500Y-8708400D02*
X7492176Y-8723724D01*
D20*
X7557500Y-8640500D02*
X7557500Y-8558736D01*
X7557500Y-8558736D02*
X7558236Y-8558000D01*
X7545000Y-8168240D02*
X7567299Y-8190539D01*
X7567299Y-8241698D02*
X7567299Y-8190539D01*
X7545000Y-8168240D02*
X7545000Y-8078000D01*
X7682500Y-8725365D02*
X7683300Y-8724565D01*
X7682500Y-8800500D02*
X7682500Y-8725365D01*
D10*
G36*
X7840022Y-8501343D02*
X7853680Y-8504082D01*
X7853680Y-8556716D01*
X7854165Y-8559154D01*
X7845000Y-8559154D01*
X7832293Y-8561619D01*
X7820000Y-8559154D01*
X7795000Y-8559154D01*
X7780473Y-8561972D01*
X7767704Y-8570360D01*
X7766260Y-8572500D01*
X7748820Y-8572500D01*
X7747640Y-8570704D01*
X7734978Y-8562157D01*
X7720000Y-8559154D01*
X7708900Y-8559154D01*
X7708900Y-8534400D01*
X7707933Y-8529540D01*
X7705180Y-8525420D01*
X7705180Y-8525419D01*
X7703220Y-8523460D01*
X7703220Y-8503989D01*
X7705000Y-8504346D01*
X7785000Y-8504346D01*
X7799527Y-8501528D01*
X7807486Y-8496300D01*
X7832551Y-8496300D01*
X7840022Y-8501343D01*
X7840022Y-8501343D01*
G37*
X7840022Y-8501343D02*
X7853680Y-8504082D01*
X7853680Y-8556716D01*
X7854165Y-8559154D01*
X7845000Y-8559154D01*
X7832293Y-8561619D01*
X7820000Y-8559154D01*
X7795000Y-8559154D01*
X7780473Y-8561972D01*
X7767704Y-8570360D01*
X7766260Y-8572500D01*
X7748820Y-8572500D01*
X7747640Y-8570704D01*
X7734978Y-8562157D01*
X7720000Y-8559154D01*
X7708900Y-8559154D01*
X7708900Y-8534400D01*
X7707933Y-8529540D01*
X7705180Y-8525420D01*
X7705180Y-8525419D01*
X7703220Y-8523460D01*
X7703220Y-8503989D01*
X7705000Y-8504346D01*
X7785000Y-8504346D01*
X7799527Y-8501528D01*
X7807486Y-8496300D01*
X7832551Y-8496300D01*
X7840022Y-8501343D01*
G36*
X7472019Y-8496564D02*
X7485000Y-8499167D01*
X7531100Y-8499167D01*
X7531100Y-8503254D01*
X7523750Y-8506291D01*
X7506587Y-8523424D01*
X7497287Y-8545821D01*
X7497265Y-8570073D01*
X7498268Y-8572500D01*
X7491223Y-8572500D01*
X7482981Y-8566936D01*
X7470000Y-8564333D01*
X7445000Y-8564333D01*
X7432410Y-8566776D01*
X7432356Y-8566811D01*
X7420000Y-8564333D01*
X7396176Y-8564333D01*
X7393940Y-8560987D01*
X7393940Y-8536618D01*
X7407329Y-8523229D01*
X7417240Y-8508396D01*
X7419239Y-8498344D01*
X7427590Y-8496724D01*
X7428236Y-8496300D01*
X7471628Y-8496300D01*
X7472019Y-8496564D01*
X7472019Y-8496564D01*
G37*
X7472019Y-8496564D02*
X7485000Y-8499167D01*
X7531100Y-8499167D01*
X7531100Y-8503254D01*
X7523750Y-8506291D01*
X7506587Y-8523424D01*
X7497287Y-8545821D01*
X7497265Y-8570073D01*
X7498268Y-8572500D01*
X7491223Y-8572500D01*
X7482981Y-8566936D01*
X7470000Y-8564333D01*
X7445000Y-8564333D01*
X7432410Y-8566776D01*
X7432356Y-8566811D01*
X7420000Y-8564333D01*
X7396176Y-8564333D01*
X7393940Y-8560987D01*
X7393940Y-8536618D01*
X7407329Y-8523229D01*
X7417240Y-8508396D01*
X7419239Y-8498344D01*
X7427590Y-8496724D01*
X7428236Y-8496300D01*
X7471628Y-8496300D01*
X7472019Y-8496564D01*
G36*
X7307700Y-8065300D02*
X7309700Y-8065300D01*
X7309700Y-8090700D01*
X7307700Y-8090700D01*
X7307700Y-8175860D01*
X7315320Y-8183480D01*
X7363563Y-8183480D01*
X7366718Y-8182173D01*
X7366980Y-8182350D01*
X7366980Y-8360020D01*
X7362300Y-8360020D01*
X7362300Y-8367640D01*
X7354680Y-8360020D01*
X7328937Y-8360020D01*
X7317734Y-8364660D01*
X7309160Y-8373234D01*
X7304520Y-8384437D01*
X7304520Y-8407680D01*
X7312140Y-8415300D01*
X7362300Y-8415300D01*
X7362300Y-8413300D01*
X7387700Y-8413300D01*
X7387700Y-8415300D01*
X7437860Y-8415300D01*
X7442140Y-8411020D01*
X7451333Y-8411020D01*
X7451333Y-8449423D01*
X7448029Y-8448051D01*
X7445208Y-8448048D01*
X7437860Y-8440700D01*
X7387700Y-8440700D01*
X7387700Y-8442700D01*
X7362300Y-8442700D01*
X7362300Y-8440700D01*
X7312140Y-8440700D01*
X7304520Y-8448320D01*
X7304520Y-8471563D01*
X7309160Y-8482766D01*
X7317734Y-8491340D01*
X7328937Y-8495980D01*
X7354680Y-8495980D01*
X7358380Y-8492280D01*
X7358380Y-8501205D01*
X7349166Y-8519633D01*
X7348853Y-8520777D01*
X7348193Y-8521764D01*
X7347161Y-8526955D01*
X7345763Y-8532059D01*
X7345911Y-8533236D01*
X7345680Y-8534400D01*
X7345680Y-8536549D01*
X7343151Y-8542641D01*
X7343129Y-8566892D01*
X7344099Y-8569239D01*
X7342380Y-8567520D01*
X7336437Y-8567520D01*
X7325234Y-8572160D01*
X7316660Y-8580734D01*
X7312020Y-8591937D01*
X7312020Y-8620180D01*
X7319640Y-8627800D01*
X7350000Y-8627800D01*
X7350000Y-8625800D01*
X7361333Y-8625800D01*
X7361333Y-8683000D01*
X7363776Y-8695590D01*
X7365000Y-8697454D01*
X7365000Y-8705860D01*
X7372620Y-8713480D01*
X7378563Y-8713480D01*
X7380169Y-8712815D01*
X7382019Y-8714064D01*
X7395000Y-8716667D01*
X7420000Y-8716667D01*
X7431224Y-8714489D01*
X7431216Y-8724333D01*
X7420000Y-8724333D01*
X7407410Y-8726776D01*
X7407356Y-8726811D01*
X7395000Y-8724333D01*
X7370000Y-8724333D01*
X7357410Y-8726776D01*
X7354260Y-8728845D01*
X7351063Y-8727520D01*
X7345120Y-8727520D01*
X7342700Y-8729940D01*
X7342700Y-8727520D01*
X7332095Y-8727520D01*
X7328662Y-8710259D01*
X7336437Y-8713480D01*
X7342380Y-8713480D01*
X7350000Y-8705860D01*
X7350000Y-8653200D01*
X7319640Y-8653200D01*
X7312020Y-8660820D01*
X7312020Y-8677668D01*
X7307405Y-8670761D01*
X7278849Y-8651680D01*
X7276020Y-8651117D01*
X7276020Y-8650492D01*
X7269320Y-8616808D01*
X7250239Y-8588252D01*
X7221684Y-8569172D01*
X7188000Y-8562472D01*
X7154316Y-8569172D01*
X7125760Y-8588252D01*
X7106680Y-8616808D01*
X7099980Y-8650492D01*
X7099980Y-8735508D01*
X7106680Y-8769192D01*
X7125760Y-8797748D01*
X7154316Y-8816828D01*
X7188000Y-8823528D01*
X7200609Y-8821020D01*
X7245165Y-8821020D01*
X7278849Y-8814320D01*
X7284520Y-8810531D01*
X7284520Y-8813200D01*
X7292140Y-8813200D01*
X7284520Y-8820820D01*
X7284520Y-8827280D01*
X7145000Y-8827280D01*
X7140583Y-8828159D01*
X7136081Y-8828159D01*
X7116946Y-8831965D01*
X7116946Y-8831965D01*
X7109653Y-8834985D01*
X7100465Y-8838791D01*
X7100465Y-8838791D01*
X7100465Y-8838791D01*
X7084244Y-8849630D01*
X7077937Y-8855937D01*
X7071630Y-8862244D01*
X7060791Y-8878465D01*
X7060791Y-8878465D01*
X7060791Y-8878465D01*
X7053964Y-8894946D01*
X7053964Y-8894946D01*
X7050158Y-8914080D01*
X7050158Y-8931920D01*
X7053964Y-8951054D01*
X7053964Y-8951054D01*
X7057784Y-8960275D01*
X7060791Y-8967535D01*
X7060791Y-8967535D01*
X7071630Y-8983756D01*
X7077937Y-8990063D01*
X7084244Y-8996370D01*
X7099280Y-9006417D01*
X7099280Y-9109705D01*
X7094739Y-9102910D01*
X7066184Y-9083829D01*
X7032500Y-9077129D01*
X6998816Y-9083829D01*
X6970260Y-9102910D01*
X6965720Y-9109705D01*
X6965720Y-8566938D01*
X7202329Y-8330329D01*
X7212240Y-8315496D01*
X7215720Y-8298000D01*
X7215720Y-8267085D01*
X7224996Y-8265240D01*
X7239829Y-8255329D01*
X7249740Y-8240496D01*
X7253220Y-8223000D01*
X7253220Y-8183480D01*
X7274680Y-8183480D01*
X7282300Y-8175860D01*
X7282300Y-8090700D01*
X7280300Y-8090700D01*
X7280300Y-8065300D01*
X7282300Y-8065300D01*
X7282300Y-8063300D01*
X7307700Y-8063300D01*
X7307700Y-8065300D01*
X7307700Y-8065300D01*
G37*
X7307700Y-8065300D02*
X7309700Y-8065300D01*
X7309700Y-8090700D01*
X7307700Y-8090700D01*
X7307700Y-8175860D01*
X7315320Y-8183480D01*
X7363563Y-8183480D01*
X7366718Y-8182173D01*
X7366980Y-8182350D01*
X7366980Y-8360020D01*
X7362300Y-8360020D01*
X7362300Y-8367640D01*
X7354680Y-8360020D01*
X7328937Y-8360020D01*
X7317734Y-8364660D01*
X7309160Y-8373234D01*
X7304520Y-8384437D01*
X7304520Y-8407680D01*
X7312140Y-8415300D01*
X7362300Y-8415300D01*
X7362300Y-8413300D01*
X7387700Y-8413300D01*
X7387700Y-8415300D01*
X7437860Y-8415300D01*
X7442140Y-8411020D01*
X7451333Y-8411020D01*
X7451333Y-8449423D01*
X7448029Y-8448051D01*
X7445208Y-8448048D01*
X7437860Y-8440700D01*
X7387700Y-8440700D01*
X7387700Y-8442700D01*
X7362300Y-8442700D01*
X7362300Y-8440700D01*
X7312140Y-8440700D01*
X7304520Y-8448320D01*
X7304520Y-8471563D01*
X7309160Y-8482766D01*
X7317734Y-8491340D01*
X7328937Y-8495980D01*
X7354680Y-8495980D01*
X7358380Y-8492280D01*
X7358380Y-8501205D01*
X7349166Y-8519633D01*
X7348853Y-8520777D01*
X7348193Y-8521764D01*
X7347161Y-8526955D01*
X7345763Y-8532059D01*
X7345911Y-8533236D01*
X7345680Y-8534400D01*
X7345680Y-8536549D01*
X7343151Y-8542641D01*
X7343129Y-8566892D01*
X7344099Y-8569239D01*
X7342380Y-8567520D01*
X7336437Y-8567520D01*
X7325234Y-8572160D01*
X7316660Y-8580734D01*
X7312020Y-8591937D01*
X7312020Y-8620180D01*
X7319640Y-8627800D01*
X7350000Y-8627800D01*
X7350000Y-8625800D01*
X7361333Y-8625800D01*
X7361333Y-8683000D01*
X7363776Y-8695590D01*
X7365000Y-8697454D01*
X7365000Y-8705860D01*
X7372620Y-8713480D01*
X7378563Y-8713480D01*
X7380169Y-8712815D01*
X7382019Y-8714064D01*
X7395000Y-8716667D01*
X7420000Y-8716667D01*
X7431224Y-8714489D01*
X7431216Y-8724333D01*
X7420000Y-8724333D01*
X7407410Y-8726776D01*
X7407356Y-8726811D01*
X7395000Y-8724333D01*
X7370000Y-8724333D01*
X7357410Y-8726776D01*
X7354260Y-8728845D01*
X7351063Y-8727520D01*
X7345120Y-8727520D01*
X7342700Y-8729940D01*
X7342700Y-8727520D01*
X7332095Y-8727520D01*
X7328662Y-8710259D01*
X7336437Y-8713480D01*
X7342380Y-8713480D01*
X7350000Y-8705860D01*
X7350000Y-8653200D01*
X7319640Y-8653200D01*
X7312020Y-8660820D01*
X7312020Y-8677668D01*
X7307405Y-8670761D01*
X7278849Y-8651680D01*
X7276020Y-8651117D01*
X7276020Y-8650492D01*
X7269320Y-8616808D01*
X7250239Y-8588252D01*
X7221684Y-8569172D01*
X7188000Y-8562472D01*
X7154316Y-8569172D01*
X7125760Y-8588252D01*
X7106680Y-8616808D01*
X7099980Y-8650492D01*
X7099980Y-8735508D01*
X7106680Y-8769192D01*
X7125760Y-8797748D01*
X7154316Y-8816828D01*
X7188000Y-8823528D01*
X7200609Y-8821020D01*
X7245165Y-8821020D01*
X7278849Y-8814320D01*
X7284520Y-8810531D01*
X7284520Y-8813200D01*
X7292140Y-8813200D01*
X7284520Y-8820820D01*
X7284520Y-8827280D01*
X7145000Y-8827280D01*
X7140583Y-8828159D01*
X7136081Y-8828159D01*
X7116946Y-8831965D01*
X7116946Y-8831965D01*
X7109653Y-8834985D01*
X7100465Y-8838791D01*
X7100465Y-8838791D01*
X7100465Y-8838791D01*
X7084244Y-8849630D01*
X7077937Y-8855937D01*
X7071630Y-8862244D01*
X7060791Y-8878465D01*
X7060791Y-8878465D01*
X7060791Y-8878465D01*
X7053964Y-8894946D01*
X7053964Y-8894946D01*
X7050158Y-8914080D01*
X7050158Y-8931920D01*
X7053964Y-8951054D01*
X7053964Y-8951054D01*
X7057784Y-8960275D01*
X7060791Y-8967535D01*
X7060791Y-8967535D01*
X7071630Y-8983756D01*
X7077937Y-8990063D01*
X7084244Y-8996370D01*
X7099280Y-9006417D01*
X7099280Y-9109705D01*
X7094739Y-9102910D01*
X7066184Y-9083829D01*
X7032500Y-9077129D01*
X6998816Y-9083829D01*
X6970260Y-9102910D01*
X6965720Y-9109705D01*
X6965720Y-8566938D01*
X7202329Y-8330329D01*
X7212240Y-8315496D01*
X7215720Y-8298000D01*
X7215720Y-8267085D01*
X7224996Y-8265240D01*
X7239829Y-8255329D01*
X7249740Y-8240496D01*
X7253220Y-8223000D01*
X7253220Y-8183480D01*
X7274680Y-8183480D01*
X7282300Y-8175860D01*
X7282300Y-8090700D01*
X7280300Y-8090700D01*
X7280300Y-8065300D01*
X7282300Y-8065300D01*
X7282300Y-8063300D01*
X7307700Y-8063300D01*
X7307700Y-8065300D01*
G36*
X7957700Y-8065300D02*
X7957700Y-8065300D01*
X7959700Y-8065300D01*
X7959700Y-8090700D01*
X7957700Y-8090700D01*
X7957700Y-8175860D01*
X7965320Y-8183480D01*
X7986780Y-8183480D01*
X7986780Y-8223000D01*
X7990260Y-8240496D01*
X8000171Y-8255329D01*
X8015004Y-8265240D01*
X8024280Y-8267085D01*
X8024280Y-8298000D01*
X8027760Y-8315496D01*
X8037671Y-8330329D01*
X8274280Y-8566938D01*
X8274280Y-9109705D01*
X8269739Y-9102910D01*
X8241184Y-9083829D01*
X8207500Y-9077129D01*
X8173816Y-9083829D01*
X8145260Y-9102910D01*
X8140720Y-9109705D01*
X8140720Y-9006417D01*
X8155756Y-8996370D01*
X8162063Y-8990063D01*
X8168370Y-8983756D01*
X8179209Y-8967535D01*
X8179209Y-8967535D01*
X8179209Y-8967535D01*
X8184192Y-8955504D01*
X8186035Y-8951054D01*
X8186035Y-8951054D01*
X8189841Y-8931919D01*
X8189841Y-8914080D01*
X8189841Y-8914080D01*
X8186035Y-8894946D01*
X8186035Y-8894946D01*
X8180640Y-8881920D01*
X8179209Y-8878465D01*
X8179209Y-8878465D01*
X8179209Y-8878465D01*
X8168370Y-8862244D01*
X8162063Y-8855937D01*
X8155756Y-8849630D01*
X8139535Y-8838791D01*
X8139535Y-8838791D01*
X8130347Y-8834985D01*
X8123054Y-8831965D01*
X8123054Y-8831965D01*
X8103919Y-8828159D01*
X8099417Y-8828159D01*
X8095000Y-8827280D01*
X7930480Y-8827280D01*
X7930480Y-8820820D01*
X7922860Y-8813200D01*
X7892500Y-8813200D01*
X7892500Y-8815200D01*
X7878667Y-8815200D01*
X7878667Y-8758000D01*
X7877500Y-8751986D01*
X7877500Y-8735140D01*
X7869880Y-8727520D01*
X7863937Y-8727520D01*
X7860782Y-8728827D01*
X7857981Y-8726936D01*
X7845000Y-8724333D01*
X7820000Y-8724333D01*
X7807410Y-8726776D01*
X7807356Y-8726811D01*
X7799857Y-8725307D01*
X7801576Y-8716667D01*
X7820000Y-8716667D01*
X7832590Y-8714224D01*
X7832644Y-8714189D01*
X7845000Y-8716667D01*
X7870000Y-8716667D01*
X7882590Y-8714224D01*
X7885739Y-8712156D01*
X7888937Y-8713480D01*
X7894880Y-8713480D01*
X7902500Y-8705860D01*
X7902500Y-8688819D01*
X7903667Y-8683000D01*
X7903667Y-8625800D01*
X7917500Y-8625800D01*
X7917500Y-8627800D01*
X7947860Y-8627800D01*
X7955480Y-8620180D01*
X7955480Y-8591937D01*
X7950840Y-8580734D01*
X7942265Y-8572160D01*
X7931063Y-8567520D01*
X7925120Y-8567520D01*
X7922804Y-8569836D01*
X7924268Y-8562472D01*
X8052000Y-8562472D01*
X8018316Y-8569172D01*
X7989760Y-8588252D01*
X7970680Y-8616808D01*
X7963980Y-8650492D01*
X7963980Y-8651117D01*
X7961151Y-8651680D01*
X7952272Y-8657613D01*
X7947860Y-8653200D01*
X7917500Y-8653200D01*
X7917500Y-8693352D01*
X7913515Y-8699316D01*
X7907765Y-8728225D01*
X7906063Y-8727520D01*
X7900120Y-8727520D01*
X7892500Y-8735140D01*
X7892500Y-8787800D01*
X7922860Y-8787800D01*
X7925716Y-8784944D01*
X7932595Y-8795240D01*
X7961151Y-8814320D01*
X7994835Y-8821020D01*
X8039391Y-8821020D01*
X8052000Y-8823528D01*
X8085684Y-8816828D01*
X8114239Y-8797748D01*
X8133320Y-8769192D01*
X8140020Y-8735508D01*
X8140020Y-8650492D01*
X8133320Y-8616808D01*
X8114239Y-8588252D01*
X8085684Y-8569172D01*
X8052000Y-8562472D01*
X7924268Y-8562472D01*
X7924800Y-8559800D01*
X7924800Y-8495980D01*
X7941063Y-8495980D01*
X7952265Y-8491340D01*
X7960840Y-8482766D01*
X7965480Y-8471563D01*
X7965480Y-8448320D01*
X7957860Y-8440700D01*
X7907700Y-8440700D01*
X7907700Y-8442700D01*
X7882300Y-8442700D01*
X7882300Y-8440700D01*
X7832140Y-8440700D01*
X7827340Y-8445500D01*
X7818667Y-8445500D01*
X7818667Y-8411020D01*
X7827860Y-8411020D01*
X7832140Y-8415300D01*
X7882300Y-8415300D01*
X7882300Y-8367640D01*
X7874680Y-8360020D01*
X7915320Y-8360020D01*
X7907700Y-8367640D01*
X7907700Y-8415300D01*
X7957860Y-8415300D01*
X7965480Y-8407680D01*
X7965480Y-8384437D01*
X7960840Y-8373234D01*
X7952265Y-8364660D01*
X7941063Y-8360020D01*
X7915320Y-8360020D01*
X7874680Y-8360020D01*
X7874680Y-8360020D01*
X7873020Y-8360020D01*
X7873020Y-8182300D01*
X7873239Y-8182155D01*
X7876437Y-8183480D01*
X7924680Y-8183480D01*
X7932300Y-8175860D01*
X7932300Y-8090700D01*
X7930300Y-8090700D01*
X7930300Y-8065300D01*
X7932300Y-8065300D01*
X7932300Y-8063300D01*
X7957700Y-8063300D01*
X7957700Y-8065300D01*
X7957700Y-8065300D01*
G37*
X7957700Y-8065300D02*
X7957700Y-8065300D01*
X7959700Y-8065300D01*
X7959700Y-8090700D01*
X7957700Y-8090700D01*
X7957700Y-8175860D01*
X7965320Y-8183480D01*
X7986780Y-8183480D01*
X7986780Y-8223000D01*
X7990260Y-8240496D01*
X8000171Y-8255329D01*
X8015004Y-8265240D01*
X8024280Y-8267085D01*
X8024280Y-8298000D01*
X8027760Y-8315496D01*
X8037671Y-8330329D01*
X8274280Y-8566938D01*
X8274280Y-9109705D01*
X8269739Y-9102910D01*
X8241184Y-9083829D01*
X8207500Y-9077129D01*
X8173816Y-9083829D01*
X8145260Y-9102910D01*
X8140720Y-9109705D01*
X8140720Y-9006417D01*
X8155756Y-8996370D01*
X8162063Y-8990063D01*
X8168370Y-8983756D01*
X8179209Y-8967535D01*
X8179209Y-8967535D01*
X8179209Y-8967535D01*
X8184192Y-8955504D01*
X8186035Y-8951054D01*
X8186035Y-8951054D01*
X8189841Y-8931919D01*
X8189841Y-8914080D01*
X8189841Y-8914080D01*
X8186035Y-8894946D01*
X8186035Y-8894946D01*
X8180640Y-8881920D01*
X8179209Y-8878465D01*
X8179209Y-8878465D01*
X8179209Y-8878465D01*
X8168370Y-8862244D01*
X8162063Y-8855937D01*
X8155756Y-8849630D01*
X8139535Y-8838791D01*
X8139535Y-8838791D01*
X8130347Y-8834985D01*
X8123054Y-8831965D01*
X8123054Y-8831965D01*
X8103919Y-8828159D01*
X8099417Y-8828159D01*
X8095000Y-8827280D01*
X7930480Y-8827280D01*
X7930480Y-8820820D01*
X7922860Y-8813200D01*
X7892500Y-8813200D01*
X7892500Y-8815200D01*
X7878667Y-8815200D01*
X7878667Y-8758000D01*
X7877500Y-8751986D01*
X7877500Y-8735140D01*
X7869880Y-8727520D01*
X7863937Y-8727520D01*
X7860782Y-8728827D01*
X7857981Y-8726936D01*
X7845000Y-8724333D01*
X7820000Y-8724333D01*
X7807410Y-8726776D01*
X7807356Y-8726811D01*
X7799857Y-8725307D01*
X7801576Y-8716667D01*
X7820000Y-8716667D01*
X7832590Y-8714224D01*
X7832644Y-8714189D01*
X7845000Y-8716667D01*
X7870000Y-8716667D01*
X7882590Y-8714224D01*
X7885739Y-8712156D01*
X7888937Y-8713480D01*
X7894880Y-8713480D01*
X7902500Y-8705860D01*
X7902500Y-8688819D01*
X7903667Y-8683000D01*
X7903667Y-8625800D01*
X7917500Y-8625800D01*
X7917500Y-8627800D01*
X7947860Y-8627800D01*
X7955480Y-8620180D01*
X7955480Y-8591937D01*
X7950840Y-8580734D01*
X7942265Y-8572160D01*
X7931063Y-8567520D01*
X7925120Y-8567520D01*
X7922804Y-8569836D01*
X7924268Y-8562472D01*
X8052000Y-8562472D01*
X8018316Y-8569172D01*
X7989760Y-8588252D01*
X7970680Y-8616808D01*
X7963980Y-8650492D01*
X7963980Y-8651117D01*
X7961151Y-8651680D01*
X7952272Y-8657613D01*
X7947860Y-8653200D01*
X7917500Y-8653200D01*
X7917500Y-8693352D01*
X7913515Y-8699316D01*
X7907765Y-8728225D01*
X7906063Y-8727520D01*
X7900120Y-8727520D01*
X7892500Y-8735140D01*
X7892500Y-8787800D01*
X7922860Y-8787800D01*
X7925716Y-8784944D01*
X7932595Y-8795240D01*
X7961151Y-8814320D01*
X7994835Y-8821020D01*
X8039391Y-8821020D01*
X8052000Y-8823528D01*
X8085684Y-8816828D01*
X8114239Y-8797748D01*
X8133320Y-8769192D01*
X8140020Y-8735508D01*
X8140020Y-8650492D01*
X8133320Y-8616808D01*
X8114239Y-8588252D01*
X8085684Y-8569172D01*
X8052000Y-8562472D01*
X7924268Y-8562472D01*
X7924800Y-8559800D01*
X7924800Y-8495980D01*
X7941063Y-8495980D01*
X7952265Y-8491340D01*
X7960840Y-8482766D01*
X7965480Y-8471563D01*
X7965480Y-8448320D01*
X7957860Y-8440700D01*
X7907700Y-8440700D01*
X7907700Y-8442700D01*
X7882300Y-8442700D01*
X7882300Y-8440700D01*
X7832140Y-8440700D01*
X7827340Y-8445500D01*
X7818667Y-8445500D01*
X7818667Y-8411020D01*
X7827860Y-8411020D01*
X7832140Y-8415300D01*
X7882300Y-8415300D01*
X7882300Y-8367640D01*
X7874680Y-8360020D01*
X7915320Y-8360020D01*
X7907700Y-8367640D01*
X7907700Y-8415300D01*
X7957860Y-8415300D01*
X7965480Y-8407680D01*
X7965480Y-8384437D01*
X7960840Y-8373234D01*
X7952265Y-8364660D01*
X7941063Y-8360020D01*
X7915320Y-8360020D01*
X7874680Y-8360020D01*
X7874680Y-8360020D01*
X7873020Y-8360020D01*
X7873020Y-8182300D01*
X7873239Y-8182155D01*
X7876437Y-8183480D01*
X7924680Y-8183480D01*
X7932300Y-8175860D01*
X7932300Y-8090700D01*
X7930300Y-8090700D01*
X7930300Y-8065300D01*
X7932300Y-8065300D01*
X7932300Y-8063300D01*
X7957700Y-8063300D01*
X7957700Y-8065300D01*
G36*
X7336333Y-8815200D02*
X7322500Y-8815200D01*
X7322500Y-8813200D01*
X7315300Y-8813200D01*
X7315300Y-8787800D01*
X7322500Y-8787800D01*
X7322500Y-8785800D01*
X7336333Y-8785800D01*
X7336333Y-8815200D01*
X7336333Y-8815200D01*
G37*
X7336333Y-8815200D02*
X7322500Y-8815200D01*
X7322500Y-8813200D01*
X7315300Y-8813200D01*
X7315300Y-8787800D01*
X7322500Y-8787800D01*
X7322500Y-8785800D01*
X7336333Y-8785800D01*
X7336333Y-8815200D01*
G36*
X7497300Y-8158000D02*
X7498267Y-8162860D01*
X7501020Y-8166980D01*
X7501250Y-8167134D01*
X7501250Y-8177765D01*
X7507808Y-8184323D01*
X7516263Y-8196977D01*
X7517300Y-8198014D01*
X7517300Y-8205474D01*
X7515650Y-8207121D01*
X7506350Y-8229519D01*
X7506329Y-8253770D01*
X7515590Y-8276184D01*
X7517300Y-8277897D01*
X7517300Y-8356833D01*
X7485000Y-8356833D01*
X7472410Y-8359276D01*
X7463239Y-8365300D01*
X7436668Y-8365300D01*
X7427981Y-8359436D01*
X7415000Y-8356833D01*
X7412700Y-8356833D01*
X7412700Y-8347348D01*
X7419829Y-8330179D01*
X7419850Y-8305927D01*
X7412700Y-8288622D01*
X7412700Y-8287348D01*
X7419829Y-8270179D01*
X7419850Y-8245927D01*
X7412700Y-8228622D01*
X7412700Y-8227348D01*
X7419829Y-8210179D01*
X7419850Y-8185927D01*
X7419216Y-8184394D01*
X7420090Y-8184224D01*
X7420144Y-8184189D01*
X7432500Y-8186667D01*
X7457500Y-8186667D01*
X7470090Y-8184224D01*
X7470673Y-8183842D01*
X7475932Y-8186020D01*
X7480495Y-8186020D01*
X7488750Y-8177765D01*
X7488750Y-8165052D01*
X7491167Y-8153000D01*
X7491167Y-8063300D01*
X7497300Y-8063300D01*
X7497300Y-8158000D01*
X7497300Y-8158000D01*
G37*
X7497300Y-8158000D02*
X7498267Y-8162860D01*
X7501020Y-8166980D01*
X7501250Y-8167134D01*
X7501250Y-8177765D01*
X7507808Y-8184323D01*
X7516263Y-8196977D01*
X7517300Y-8198014D01*
X7517300Y-8205474D01*
X7515650Y-8207121D01*
X7506350Y-8229519D01*
X7506329Y-8253770D01*
X7515590Y-8276184D01*
X7517300Y-8277897D01*
X7517300Y-8356833D01*
X7485000Y-8356833D01*
X7472410Y-8359276D01*
X7463239Y-8365300D01*
X7436668Y-8365300D01*
X7427981Y-8359436D01*
X7415000Y-8356833D01*
X7412700Y-8356833D01*
X7412700Y-8347348D01*
X7419829Y-8330179D01*
X7419850Y-8305927D01*
X7412700Y-8288622D01*
X7412700Y-8287348D01*
X7419829Y-8270179D01*
X7419850Y-8245927D01*
X7412700Y-8228622D01*
X7412700Y-8227348D01*
X7419829Y-8210179D01*
X7419850Y-8185927D01*
X7419216Y-8184394D01*
X7420090Y-8184224D01*
X7420144Y-8184189D01*
X7432500Y-8186667D01*
X7457500Y-8186667D01*
X7470090Y-8184224D01*
X7470673Y-8183842D01*
X7475932Y-8186020D01*
X7480495Y-8186020D01*
X7488750Y-8177765D01*
X7488750Y-8165052D01*
X7491167Y-8153000D01*
X7491167Y-8063300D01*
X7497300Y-8063300D01*
X7497300Y-8158000D01*
G36*
X7748833Y-8153000D02*
X7751250Y-8165457D01*
X7751250Y-8200625D01*
X7767125Y-8216500D01*
X7770131Y-8216500D01*
X7793470Y-8206833D01*
X7811333Y-8188970D01*
X7812705Y-8185657D01*
X7820090Y-8184224D01*
X7820144Y-8184189D01*
X7820794Y-8184319D01*
X7820171Y-8185821D01*
X7820150Y-8210072D01*
X7827300Y-8227377D01*
X7827300Y-8228652D01*
X7820171Y-8245821D01*
X7820150Y-8270072D01*
X7827300Y-8287377D01*
X7827300Y-8288652D01*
X7820171Y-8305821D01*
X7820150Y-8330072D01*
X7827300Y-8347377D01*
X7827300Y-8365300D01*
X7806668Y-8365300D01*
X7797981Y-8359436D01*
X7785000Y-8356833D01*
X7732700Y-8356833D01*
X7732700Y-8206675D01*
X7738750Y-8200625D01*
X7738750Y-8165052D01*
X7741167Y-8153000D01*
X7741167Y-8063300D01*
X7748833Y-8063300D01*
X7748833Y-8153000D01*
X7748833Y-8153000D01*
G37*
X7748833Y-8153000D02*
X7751250Y-8165457D01*
X7751250Y-8200625D01*
X7767125Y-8216500D01*
X7770131Y-8216500D01*
X7793470Y-8206833D01*
X7811333Y-8188970D01*
X7812705Y-8185657D01*
X7820090Y-8184224D01*
X7820144Y-8184189D01*
X7820794Y-8184319D01*
X7820171Y-8185821D01*
X7820150Y-8210072D01*
X7827300Y-8227377D01*
X7827300Y-8228652D01*
X7820171Y-8245821D01*
X7820150Y-8270072D01*
X7827300Y-8287377D01*
X7827300Y-8288652D01*
X7820171Y-8305821D01*
X7820150Y-8330072D01*
X7827300Y-8347377D01*
X7827300Y-8365300D01*
X7806668Y-8365300D01*
X7797981Y-8359436D01*
X7785000Y-8356833D01*
X7732700Y-8356833D01*
X7732700Y-8206675D01*
X7738750Y-8200625D01*
X7738750Y-8165052D01*
X7741167Y-8153000D01*
X7741167Y-8063300D01*
X7748833Y-8063300D01*
X7748833Y-8153000D01*
M02*
