G04 #@! TF.FileFunction,Soldermask,Top*
%FSLAX45Y45*%
G04 Gerber Fmt 4.5, Leading zero omitted, Abs format (unit mm)*
G04 Created by KiCad (PCBNEW (2015-06-14 BZR 5747, Git dc9ebf3)-product) date 7/9/2015 01:47:13*
%MOMM*%
G01*
G04 APERTURE LIST*
%ADD10C,0.254000*%
%ADD11R,0.351600X1.601600*%
%ADD12R,1.351600X1.601600*%
%ADD13O,1.201600X2.001600*%
%ADD14O,1.201600X2.351600*%
%ADD15R,0.401600X0.951600*%
%ADD16R,0.351600X0.951600*%
%ADD17O,1.651600X1.201600*%
%ADD18R,0.901600X0.851600*%
G04 APERTURE END LIST*
D10*
D11*
X7395000Y-8078000D03*
X7445000Y-8078000D03*
X7495000Y-8078000D03*
X7545000Y-8078000D03*
X7595000Y-8078000D03*
X7645000Y-8078000D03*
X7695000Y-8078000D03*
X7745000Y-8078000D03*
X7795000Y-8078000D03*
X7845000Y-8078000D03*
D12*
X7945000Y-8078000D03*
X7295000Y-8078000D03*
D13*
X7188000Y-8693000D03*
D14*
X8207500Y-9225500D03*
D15*
X7357500Y-8640500D03*
D16*
X7407500Y-8640500D03*
X7457500Y-8640500D03*
X7507500Y-8640500D03*
X7557500Y-8640500D03*
X7607500Y-8640500D03*
X7657500Y-8640500D03*
X7707500Y-8640500D03*
X7757500Y-8640500D03*
X7807500Y-8640500D03*
X7857500Y-8640500D03*
D15*
X7910000Y-8640500D03*
X7885000Y-8800500D03*
D16*
X7832500Y-8800500D03*
X7782500Y-8800500D03*
X7732500Y-8800500D03*
X7682500Y-8800500D03*
X7632500Y-8800500D03*
X7582500Y-8800500D03*
X7532500Y-8800500D03*
X7482500Y-8800500D03*
X7432500Y-8800500D03*
X7382500Y-8800500D03*
D15*
X7330000Y-8800500D03*
D14*
X7032500Y-9225500D03*
D13*
X8052000Y-8693000D03*
D17*
X7220500Y-8733000D03*
X8019500Y-8733000D03*
D18*
X7745000Y-8428000D03*
X7895000Y-8428000D03*
X7525000Y-8428000D03*
X7375000Y-8428000D03*
M02*
