M48
;DRILL file {KiCad (2015-06-14 BZR 5747, Git dc9ebf3)-product} date 7/9/2015 01:47:14
;FORMAT={2:4/ absolute / inch / suppress leading zeros}
FMAT,2
INCH,TZ
T1C0.012
T2C0.028
%
G90
G05
M72
T1
X28504Y-32512
X28504Y-32748
X28740Y-32276
X28740Y-32512
X28740Y-32748
X28972Y-32276
X28972Y-32512
X28972Y-32748
X29150Y-33680
X29252Y-32276
X29252Y-32512
X29252Y-32748
X29275Y-33500
X29400Y-33680
X29488Y-32276
X29488Y-32512
X29488Y-32748
X29497Y-34345
X29551Y-33502
X29757Y-33693
X29793Y-32448
X29819Y-34354
X30197Y-32827
X30249Y-34349
X30403Y-33499
X30512Y-32276
X30512Y-32512
X30512Y-32747
X30525Y-33680
X30650Y-33500
X30748Y-32276
X30748Y-32512
X30748Y-32748
X30775Y-33680
X30900Y-33500
X31028Y-32276
X31028Y-32512
X31028Y-32748
X31260Y-32276
X31260Y-32512
X31260Y-32748
X31496Y-32512
X31496Y-32748
T2
X27687Y-36311G85X27687Y-36547
G05
X28299Y-34067G85X28299Y-34382
G05
X28299Y-34382G85X28555Y-34382
G05
X31445Y-34382G85X31701Y-34382
G05
X31701Y-34067G85X31701Y-34382
G05
X32313Y-36311G85X32313Y-36547
G05
T0
M30
